<?xml version="1.0" encoding="UTF-8" standalone="no"?>
<svg
  width="325"
  height="120"
  viewBox="0 0 169.99999 108"
  version="1.1"
  xml:space="preserve"
  style="overflow:visible"
  id="main"
  xmlns="http://www.w3.org/2000/svg"
  xmlns:svg="http://www.w3.org/2000/svg">


<defs>
  <style type="text/css">    
    .home_link_text {
      overflow:visible;
      font-size:36px;
      font-family:'Shanty House';
      -inkscape-font-specification:'Shanty House';
      fill: #323177;
      stroke-width: 1.32593;
      text-rendering: optimizeLegibility;
      -moz-osx-font-smoothing:grayscale;
      -webkit-font-smoothing:antialiased
    }
    .wing_shape {
      fill:#4ed387;
      fill-opacity:1;
      stroke-width:0.567817;
    }
  </style>
</defs>

<path
  d="M 22.670456,60.179812 C 18.062258,59.346166 13.556724,57.998054 9.0841038,56.675328 6.0706668,55.346869 4.1845133,52.506456 1.6595078,50.518767 -2.1038951,50.053251 -5.8031624,49.468579 -9.0659178,47.445841 c -4.3496912,-1.50677 -8.2378162,-3.994272 -12.0976392,-6.435598 -2.856966,-1.194107 1.267161,-4.955732 -2.320674,-3.743719 -2.767141,0.462632 -4.731414,-2.036219 -4.123034,-4.463309 -2.04187,-0.227153 -7.483329,-0.43489 -4.302194,-3.547474 1.590005,-3.025947 -5.644026,-0.346515 -3.848143,-4.318941 1.536044,-3.630575 6.186209,-2.248851 9.093503,-3.962162 3.62476,-2.034588 -2.136093,-1.461227 -3.732311,-1.299398 -2.193242,-0.02087 -5.55779,0.809357 -6.881214,-1.127093 0.821909,-4.141873 6.954308,-2.586889 10.097367,-3.777139 2.697908,-0.723324 6.630261,-0.206707 8.54283,-1.787244 -1.613026,-3.0289128 -6.561252,-1.408806 -9.496495,-2.4836 -2.229857,-0.01707 -7.206903,-1.0226834 -6.542629,-3.3911733 3.320534,-1.7779101 7.239466,-0.8014675 10.834251,-0.9215811 8.360251,0.5548319 16.1958343,3.7416345 24.20531077,5.8850004 4.50918483,1.053588 9.21077633,1.299825 13.65822823,2.528454 3.624592,1.481263 7.105701,3.63008 9.345368,6.916689 3.801187,4.235712 7.732387,8.587654 10.204202,13.7417 0.639604,3.969973 0.148161,8.038228 1.108946,11.983104 0.451574,3.054678 0.09994,6.469396 -2.221831,8.702133 -2.037473,3.242629 -6.353284,3.634904 -9.739672,4.241182 z"
  id="wing1"
  class="wing_shape">
  <animateTransform
    attributeName="transform"
    attributeType="XML"
    type="rotate"
    values="0 20 60;-40 20 60;0 20 60"
    dur="0.3s"
    repeatCount="indefinite"
  />
</path>
<path
  d="m 148.31541,60.179812 c 4.6082,-0.833646 9.11373,-2.181758 13.58635,-3.504484 3.01344,-1.328459 4.89959,-4.168872 7.4246,-6.156561 3.7634,-0.465516 7.46267,-1.050188 10.72542,-3.072926 4.3497,-1.50677 8.23782,-3.994272 12.09764,-6.435598 2.85697,-1.194107 -1.26716,-4.955732 2.32068,-3.743719 2.76714,0.462632 4.73141,-2.036219 4.12303,-4.463309 2.04187,-0.227153 7.48333,-0.43489 4.3022,-3.547474 -1.59001,-3.025947 5.64402,-0.346515 3.84814,-4.318941 -1.53604,-3.630575 -6.18621,-2.248851 -9.0935,-3.962162 -3.62476,-2.034588 2.13609,-1.461227 3.73231,-1.299398 2.19324,-0.02087 5.55779,0.809357 6.88121,-1.127093 -0.82191,-4.141873 -6.95431,-2.586889 -10.09737,-3.777139 -2.6979,-0.723324 -6.63026,-0.206707 -8.54283,-1.787244 1.61303,-3.0289128 6.56126,-1.408806 9.4965,-2.4836 2.22986,-0.01707 7.2069,-1.0226834 6.54263,-3.3911733 -3.32054,-1.7779101 -7.23947,-0.8014675 -10.83425,-0.9215811 -8.36025,0.5548319 -16.19584,3.7416345 -24.20531,5.8850004 -4.50919,1.053588 -9.21078,1.299825 -13.65823,2.528454 -3.62459,1.481263 -7.1057,3.63008 -9.34537,6.916689 -3.80119,4.235712 -7.73239,8.587654 -10.2042,13.7417 -0.63961,3.969973 -0.14816,8.038228 -1.10895,11.983104 -0.45157,3.054678 -0.0999,6.469396 2.22183,8.702133 2.03748,3.242629 6.35329,3.634904 9.73967,4.241182 z"
  id="wing2"
  class="wing_shape">
  <animateTransform
    attributeName="transform"
    attributeType="XML"
    type="rotate"
    values="0 160 60;40 160 60;0 160 60"
    dur="0.3s"
    repeatCount="indefinite"
  />
</path>
<path
  d="m 39.443994,58.770298 q -1.432,0 -2.338933,-0.334134 -0.8592,-0.381866 -1.384267,-1.050133 -0.525066,-0.668267 -0.811466,-1.622933 -0.238667,-1.0024 -0.381867,-2.243467 -0.04773,-0.238666 -0.09547,-0.716 -0.04773,-0.477333 -0.190934,-0.954666 -0.09547,-0.477334 -0.2864,-0.811467 -0.190933,-0.381867 -0.5728,-0.381867 h -2.864 q -1.097866,0 -1.622933,0.620534 -0.525067,0.620533 -0.811467,1.527466 -0.2864,0.906934 -0.525067,2.0048 -0.190933,1.050133 -0.716,1.957067 -0.477333,0.906933 -1.431999,1.527466 -0.954667,0.620534 -2.673067,0.620534 -2.100267,0 -3.245867,-1.097867 -1.097866,-1.1456 -1.622933,-2.768533 -0.525067,-1.670667 -0.620533,-3.532267 -0.09547,-1.909333 -0.09547,-3.4368 0,-2.338933 0.238667,-4.964266 0.238666,-2.625333 0.859199,-5.202933 0.668267,-2.5776 1.7184,-4.916533 1.050134,-2.386667 2.625334,-4.1528 1.622933,-1.813867 3.8664,-2.864 2.243466,-1.097867 5.202933,-1.097867 2.625334,0 4.677867,1.050134 2.052533,1.050133 3.627733,2.816266 1.5752,1.766133 2.673067,4.057333 1.1456,2.243467 1.813866,4.7256 0.716,2.4344 1.050133,4.8688 0.334134,2.4344 0.334134,4.534666 0,1.7184 -0.1432,3.484534 -0.1432,1.766133 -0.381867,3.4368 -0.381867,2.291199 -2.0048,3.627733 -1.5752,1.2888 -3.8664,1.2888 z M 29.706395,43.686565 q 0,0.2864 0.190933,0.4296 0.238667,0.1432 0.525067,0.238667 0.2864,0.04773 0.5728,0.09547 0.334133,0 0.525066,0 0.1432,0 0.477334,0 0.381866,-0.04773 0.716,-0.09547 0.334133,-0.09547 0.5728,-0.238667 0.2864,-0.1432 0.2864,-0.381867 0,-0.2864 -0.04773,-1.097866 -0.04773,-0.811467 -0.1432,-1.909334 -0.04773,-1.097866 -0.190933,-2.2912 -0.1432,-1.193333 -0.334133,-2.195733 -0.190934,-1.0024 -0.4296,-1.622933 -0.238667,-0.668267 -0.5728,-0.668267 -0.381867,0 -0.668267,0.668267 -0.2864,0.620533 -0.525067,1.622933 -0.238666,0.954667 -0.4296,2.148 -0.190933,1.1456 -0.334133,2.243467 -0.09547,1.050133 -0.1432,1.909333 -0.04773,0.811467 -0.04773,1.1456 z m 44.248786,2.7208 q 0,2.768533 -0.906933,5.1552 -0.8592,2.386666 -2.482133,4.152799 -1.622934,1.766134 -3.961867,2.768534 -2.2912,1.0024 -5.107466,1.0024 -0.4296,0 -1.097867,-0.09547 -0.620533,-0.09547 -1.2888,-0.334133 -0.668267,-0.190934 -1.241067,-0.477334 -0.5728,-0.334133 -0.8592,-0.763733 -0.8592,1.097867 -1.957066,1.479733 -1.050133,0.4296 -2.482133,0.4296 -1.1456,0 -2.0048,-0.525066 -0.8592,-0.477334 -1.432,-1.241067 -0.5728,-0.811467 -0.8592,-1.766133 -0.2864,-1.0024 -0.381867,-2.0048 -0.2864,-3.102667 -0.477333,-6.1576 -0.1432,-3.102666 -0.334134,-6.205333 -0.1432,-2.338933 -0.2864,-4.630133 -0.1432,-2.338933 -0.1432,-4.7256 0,-1.7184 0.1432,-3.341333 0.1432,-1.670667 0.763734,-2.911733 0.620533,-1.2888 1.8616,-2.052534 1.241066,-0.763733 3.4368,-0.763733 1.7184,0 2.768533,0.381867 1.097866,0.334133 1.7184,1.097866 0.620533,0.716 0.8592,1.8616 0.238666,1.1456 0.238666,2.768533 0,1.957067 -0.09547,3.914134 -0.09547,1.957066 -0.238667,3.914133 0.477333,0 1.0024,-0.2864 0.5728,-0.2864 1.241067,-0.620533 0.668266,-0.334134 1.527466,-0.620534 0.906934,-0.2864 2.052534,-0.2864 2.386666,0 4.248266,0.8592 1.8616,0.8592 3.1504,2.338933 1.2888,1.432 1.957067,3.4368 0.668266,1.957067 0.668266,4.248267 z M 60.542115,44.784432 q -1.0024,0 -1.479733,0.09547 -0.477334,0.09547 -0.668267,0.381867 -0.1432,0.238667 -0.1432,0.763733 0,0.525067 0,1.384267 l -0.04773,1.7184 q 0,1.097866 0.477333,1.5752 0.477333,0.4296 1.5752,0.4296 0.668267,0 1.1456,-0.334134 0.477333,-0.334133 0.811467,-0.8592 0.381866,-0.525066 0.525066,-1.097866 0.190934,-0.620534 0.190934,-1.193334 0,-1.241066 -0.525067,-2.052533 -0.477333,-0.811466 -1.8616,-0.811466 z m 44.630645,-3.8664 q 0,4.057333 -0.76373,7.446399 -0.716,3.341334 -2.52987,5.775734 -1.76613,2.434399 -4.773332,3.770933 -2.959466,1.336533 -7.446399,1.336533 -3.914133,0 -6.5872,-0.763733 -2.673067,-0.811467 -4.391467,-2.482134 -1.670666,-1.718399 -2.529866,-4.391466 -0.8592,-2.673067 -1.241067,-6.396266 -0.1432,-1.670667 -0.1432,-3.2936 0,-3.961867 1.097867,-6.7304 1.097866,-2.768533 3.1504,-4.486933 2.052533,-1.766134 5.012,-2.529867 3.007199,-0.811466 6.730399,-0.811466 7.0168,0 10.692265,3.198133 3.7232,3.198133 3.7232,10.358133 z M 89.659429,52.230831 q 1.5752,0 2.386666,-1.1456 0.8592,-1.193333 1.241067,-2.816266 0.381867,-1.622934 0.4296,-3.341333 0.04773,-1.7184 0.04773,-2.816267 0,-0.8592 -0.1432,-1.766133 -0.09547,-0.954667 -0.477333,-1.7184 -0.381867,-0.811467 -1.050133,-1.336534 -0.620534,-0.525066 -1.7184,-0.525066 -1.384267,0 -2.243467,0.620533 -0.8592,0.620533 -1.336533,1.5752 -0.477334,0.954667 -0.668267,2.100267 -0.1432,1.1456 -0.1432,2.243466 0,1.0024 0,2.529867 0.04773,1.479733 0.381867,2.911733 0.334133,1.432 1.097866,2.482133 0.763734,1.0024 2.195734,1.0024 z m 38.950401,7.16 q -2.24346,0 -4.0096,-1.527467 -0.4296,0.716 -1.19333,1.097867 -0.76373,0.4296 -1.62293,0.5728 -0.8592,0.190933 -1.76614,0.238667 -0.90693,0.04773 -1.62293,0.04773 -3.10267,0 -5.2984,-0.954667 -2.148,-0.954666 -3.53227,-2.625333 -1.33653,-1.7184 -2.05253,-4.057333 -0.66827,-2.338933 -0.8592,-5.1552 -0.1432,-2.5776 -0.2864,-5.1552 -0.0955,-2.5776 -0.0955,-5.155199 0,-1.2888 0.1432,-2.864 0.1432,-1.5752 0.62053,-2.911734 0.52507,-1.384266 1.52747,-2.2912 1.0024,-0.954666 2.7208,-0.954666 2.05253,0 3.24587,0.954666 1.19333,0.906934 1.76613,2.338934 0.62053,1.384266 0.76373,3.102666 0.19094,1.7184 0.19094,3.2936 0,1.957067 -0.0477,3.8664 -0.0477,1.909333 -0.0477,3.914133 0,0.716 0,1.7184 0.0477,1.0024 0.23866,1.957067 0.23867,0.906933 0.76374,1.5752 0.5728,0.668266 1.57519,0.668266 1.24107,0 1.95707,-1.241066 0.716,-1.241067 1.05013,-2.864 0.38187,-1.670667 0.47734,-3.341333 0.0955,-1.670667 0.0955,-2.529867 0,-1.909333 -0.0955,-3.770933 -0.0955,-1.8616 -0.0955,-3.770933 0,-1.336534 0.2864,-2.482134 0.33413,-1.1456 1.0024,-1.957066 0.66827,-0.811467 1.67067,-1.2888 1.05013,-0.477333 2.52986,-0.477333 1.7184,0 2.81627,0.572799 1.1456,0.5728 1.81387,1.5752 0.716,0.954667 0.95466,2.2912 0.2864,1.2888 0.2864,2.816267 0,0.334133 0,0.668267 0,0.334133 -0.0477,0.668266 l -1.05013,17.088533 q -0.0477,1.097867 -0.33414,2.243466 -0.2864,1.097867 -0.8592,2.052534 -0.52506,0.906933 -1.432,1.479733 -0.8592,0.5728 -2.148,0.5728 z m 20.5731,-17.565866 q 0,1.479733 0,2.959467 0.0477,1.431999 0.0477,2.911733 0,0.190933 0,0.906933 0,0.716 0.0477,1.479733 0.0955,0.763734 0.19094,1.384267 0.1432,0.620533 0.4296,0.620533 0.1432,0 0.23866,-0.2864 0.1432,-0.334133 0.23867,-0.716 0.0955,-0.381866 0.1432,-0.716 0.0477,-0.381866 0.0477,-0.525066 0.23867,-1.432 1.24107,-2.100267 1.05013,-0.716 2.4344,-0.716 0.81147,0 1.67067,0.238667 0.8592,0.238666 1.52746,0.716 0.66827,0.4296 1.09787,1.1456 0.4296,0.716 0.4296,1.670666 0,2.243467 -0.8592,3.914134 -0.81147,1.622933 -2.24347,2.720799 -1.38426,1.097867 -3.24586,1.622934 -1.8616,0.525066 -3.91414,0.525066 -4.48693,0 -6.96906,-2.2912 -2.48214,-2.291199 -2.7208,-6.778133 -0.0955,-1.527466 -0.0955,-3.054933 0.0477,-1.527466 0.0477,-3.054933 0,-1.622933 0,-3.198133 0,-1.622934 -0.0477,-3.245867 l -0.23867,-0.1432 q -2.148,0 -3.05493,-1.0024 -0.90693,-1.0024 -0.90693,-3.770933 0,-0.620533 0.33413,-1.193333 0.33413,-0.620534 0.90693,-1.050134 0.62054,-0.477333 1.38427,-0.716 0.81147,-0.2864 1.7184,-0.2864 h 0.0477 q 0.0477,-0.906933 0,-1.766133 -0.0477,-0.8592 -0.0477,-1.7184 0,-1.050133 0.52507,-1.766133 0.5728,-0.763733 1.432,-1.241067 0.8592,-0.477333 1.8616,-0.668266 1.0024,-0.238667 1.8616,-0.238667 1.09786,0 2.05253,0.2864 1.0024,0.2864 1.76613,0.906933 0.81147,0.5728 1.24107,1.479734 0.47733,0.8592 0.47733,2.052533 0,0.477333 -0.0955,0.954666 -0.0477,0.4296 -0.0477,0.954667 v 0.525067 h 0.2864 q 1.1456,0 2.5776,-0.04773 1.47974,-0.04773 2.7208,0.238667 1.2888,0.2864 2.148,1.097867 0.90694,0.763733 0.90694,2.482133 0,0.763733 -0.33414,1.622933 -0.2864,0.811467 -0.81146,1.479734 -0.52507,0.620533 -1.2888,1.050133 -0.716,0.4296 -1.5752,0.4296 -0.90694,0 -1.81387,-0.1432 -0.8592,-0.190934 -1.81387,-0.190934 -0.38186,0 -0.81146,0.04773 -0.38187,0.04773 -0.76374,0.238666 -0.1432,0.04773 -0.23866,0.620534 -0.0955,0.5728 -0.1432,1.241066 0,0.668267 0,1.2888 0,0.620534 0,0.811467 z"
  class="home_link_text"
  aria-label="About"
/>
<animateTransform
  attributeName="transform"
  attributeType="XML"
  type="translate"
  values="1 1;1 10;1 1"
  dur="3s"
  repeatCount="indefinite"
/>


</svg>