<?xml version="1.0" encoding="UTF-8" standalone="no"?>
<svg
   width="320"
   height="120"
   viewBox="0 0 320 108"
   version="1.1"
   id="main"
   xmlns="http://www.w3.org/2000/svg"
   xmlns:svg="http://www.w3.org/2000/svg">


<defs>
   <style type="text/css">   
      .home_link_text {
         overflow:visible;
         font-size:36px;
         font-family:'Shanty House';
         -inkscape-font-specification:'Shanty House';
         fill: #323177;
         stroke-width: 1.32593;
         text-rendering: optimizeLegibility;
         -moz-osx-font-smoothing:grayscale;
         -webkit-font-smoothing:antialiased;
      }
   </style>
</defs>

<path
   d="M 85.363606,26.516728 C 66.356558,32.740244 59.473641,42.570068 67.00916,52.729594 79.13329,56.335903 86.016208,46.506078 85.363606,26.516728 Z"
   fill="#d89c57"
   id="ear1">
   <animateTransform
      attributeName="transform"
      attributeType="XML"
      type="rotate"
      values="0 80 20;10 80 0;0 80 20;"
      keyTimes="0; 0.5; 1"
      dur="2s"
      repeatCount="indefinite"
      additive="sum" />
</path>
<path
   d="m 240.10368,26.517 c -0.6526,19.98935 6.23031,29.819175 18.35444,26.212866 7.53552,-10.159526 0.65261,-19.98935 -18.35444,-26.212866 z"
   fill="#d89c57"
   id="ear2" />
<path
   d="m 155,61 h 15 v 15 m 0,0 a 7.5,7.5 0 0 1 -15,0 V 61"
   fill="#f85485"
   id="tongue">
   <animateTransform
      attributeName="transform"
      attributeType="XML"
      type="scale"
      values="1 1;1 0.9; 1 1"
      dur=".3s"
      repeatCount="indefinite"
      additive="sum" />
</path>
<path
   d="m 93.06072,62.178877 q -2.37936,0 -3.80697,-1.274069 -1.36813,-1.331982 -2.14142,-3.243087 -0.7733,-1.911104 -1.07071,-4.053857 -0.29742,-2.142754 -0.41639,-3.822209 -0.29742,-4.111771 -0.65433,-8.165629 -0.3569,-4.11177 -0.3569,-8.22354 0,-1.79528 0.23794,-3.880121 0.23793,-2.142754 1.01122,-3.938034 0.83278,-1.795279 2.26039,-3.011437 1.4871,-1.216157 3.86646,-1.216157 2.31988,0 3.62852,0.926596 1.36813,0.868684 2.02246,2.31649 0.7138,1.389894 0.89226,3.185174 0.17845,1.79528 0.17845,3.532648 0,1.100333 -0.0595,2.200666 0,1.100332 0.0595,2.258578 0.0595,1.389894 0.47587,1.853192 0.47587,0.405386 1.90349,0.405386 h 3.74749 q 0.65432,0 0.83277,-0.405386 0.17845,-0.405386 0.29742,-0.926596 0.29742,-1.331982 0.41639,-3.011438 0.11897,-1.679455 0.23794,-3.358911 0.11896,-1.737367 0.41638,-3.35891 0.35691,-1.679456 1.07071,-2.953525 0.7733,-1.27407 2.08194,-2.026929 1.30865,-0.810772 3.45007,-0.810772 1.96297,0 3.27162,0.752859 1.36813,0.75286 2.14142,2.026929 0.83278,1.27407 1.1302,2.837701 0.3569,1.563631 0.3569,3.243086 0,3.938034 -0.53535,8.223541 -0.53536,4.227594 -0.83278,8.22354 -0.11897,1.911104 -0.3569,4.63298 -0.23794,2.663964 -1.01123,5.096279 -0.71381,2.432315 -2.26039,4.169682 -1.54658,1.737368 -4.34233,1.737368 -2.02245,0 -3.21213,-0.926596 -1.1302,-0.926596 -1.78452,-2.31649 -0.59484,-1.389894 -0.77329,-3.06935 -0.17846,-1.679455 -0.17846,-3.185174 0,-1.274069 0.11897,-2.490227 0.17845,-1.216157 0.17845,-2.490227 0,-0.173737 -0.47587,-0.231649 -0.41639,-0.115824 -1.01122,-0.173737 -0.59484,-0.05791 -1.1302,-0.05791 -0.53536,0 -0.71381,0 -0.23793,0 -0.77329,0 -0.53535,0 -1.13019,0.05791 -0.53536,0 -0.95175,0.115825 -0.41639,0.05791 -0.41639,0.231649 0,1.04242 0.11897,2.142753 0.11897,1.042421 0.11897,2.084842 0,1.56363 -0.17845,3.35891 -0.17845,1.79528 -0.83278,3.358911 -0.59484,1.563631 -1.844,2.606052 -1.18968,1.04242 -3.27162,1.04242 z m 66.62201,-21.717096 q 0,4.922542 -0.95174,9.034312 -0.89226,4.053858 -3.15265,7.007383 -2.20091,2.953525 -5.9484,4.575069 -3.688,1.621543 -9.27949,1.621543 -4.87769,0 -8.20879,-0.926596 -3.3311,-0.984509 -5.47252,-3.011438 -2.08194,-2.084841 -3.15265,-5.327927 -1.07072,-3.243087 -1.54659,-7.760243 -0.17845,-2.026929 -0.17845,-3.995945 0,-4.806718 1.36813,-8.165628 1.36813,-3.358911 3.92594,-5.443753 2.55781,-2.142753 6.24582,-3.069349 3.74749,-0.984508 8.38724,-0.984508 8.74414,0 13.3244,3.880121 4.63975,3.880121 4.63975,12.566959 z m -19.33228,13.725205 q 1.96297,0 2.97419,-1.389894 1.07072,-1.447806 1.54659,-3.416823 0.47587,-1.969017 0.53535,-4.053858 0.0595,-2.084841 0.0595,-3.416823 0,-1.042421 -0.17845,-2.142754 -0.11897,-1.158245 -0.59484,-2.084841 -0.47588,-0.984508 -1.30865,-1.621543 -0.77329,-0.637035 -2.14142,-0.637035 -1.72504,0 -2.79575,0.752859 -1.07071,0.75286 -1.66555,1.911105 -0.59484,1.158245 -0.83278,2.548139 -0.17845,1.389894 -0.17845,2.721876 0,1.216158 0,3.06935 0.0595,1.79528 0.47587,3.532647 0.41639,1.737368 1.36813,3.011438 0.95175,1.216157 2.73627,1.216157 z m 36.3447,-18.416097 q -0.89226,0 -1.42762,1.158245 -0.47587,1.158245 -0.71381,2.721876 -0.23793,1.505718 -0.29742,2.953525 0,1.447806 0,2.084841 0,2.895613 0.23794,5.733313 0.29742,2.837701 0.29742,5.733314 0,1.447806 -0.23794,2.663964 -0.17845,1.216157 -0.77329,2.084841 -0.59484,0.868684 -1.66555,1.331982 -1.07071,0.52121 -2.79574,0.52121 -1.90349,0 -3.21214,-0.868684 -1.30865,-0.926596 -2.14142,-2.374402 -0.83278,-1.505719 -1.30865,-3.358911 -0.47587,-1.911105 -0.71381,-3.822209 -0.23793,-1.911105 -0.29742,-3.648472 -0.0595,-1.79528 -0.17845,-3.127262 -0.11897,-2.374403 -0.11897,-4.227595 0,-1.853192 0,-4.227595 0,-2.490227 0.95175,-4.864629 0.95174,-2.374403 2.61729,-4.227595 1.72504,-1.911104 3.98543,-3.069349 2.31987,-1.158245 4.93717,-1.158245 3.21213,0 5.23459,0.694947 2.02245,0.694947 3.27161,1.505718 1.24917,0.810772 1.90349,1.563631 0.65432,0.694947 1.07071,0.810772 1.24916,-0.810772 2.43884,-1.621543 1.18968,-0.810772 2.49833,-1.447807 1.30865,-0.694947 2.73626,-1.100333 1.4871,-0.405385 3.15265,-0.405385 2.79575,0 4.58027,0.926596 1.844,0.868683 2.85523,2.432314 1.07071,1.563631 1.4871,3.648473 0.41638,2.084841 0.41638,4.459243 0,1.100333 -0.0595,2.200666 -0.0595,1.042421 -0.17845,2.142753 l -1.18968,14.88345 q -0.11897,1.563631 -0.47587,3.06935 -0.29742,1.505719 -1.07071,2.663964 -0.71381,1.100333 -1.96298,1.79528 -1.24916,0.694947 -3.21213,0.694947 -1.844,0 -2.9742,-0.810772 -1.13019,-0.868684 -1.72503,-2.142753 -0.59484,-1.27407 -0.83278,-2.837701 -0.17845,-1.563631 -0.17845,-2.953525 0,-4.169682 0.17845,-8.281453 0.23794,-4.11177 0.41639,-8.281452 0,-0.115825 0,-0.347474 0,-0.289561 -0.0595,-0.52121 -0.0595,-0.289561 -0.17846,-0.52121 -0.0595,-0.231649 -0.17845,-0.231649 -0.65432,0 -1.13019,0.926596 -0.41639,0.868684 -0.71381,2.258578 -0.29742,1.331982 -0.47587,3.011437 -0.11897,1.679455 -0.17845,3.243086 -0.0595,1.505719 -0.0595,2.779789 0,1.216157 0,1.679455 0,1.679456 -0.11897,3.938034 -0.0595,2.258578 -0.65432,4.285506 -0.53535,2.026929 -1.844,3.416824 -1.24917,1.389894 -3.74749,1.389894 -2.20091,0 -3.39059,-1.27407 -1.13019,-1.331982 -1.66555,-3.185174 -0.47587,-1.911104 -0.53535,-3.938033 -0.0595,-2.084842 -0.0595,-3.59056 0,-2.721876 0.0595,-5.38584 0.0595,-2.663964 0.0595,-5.38584 0,-0.231649 0,-0.868684 0.0595,-0.694947 0,-1.389894 -0.0595,-0.752859 -0.23794,-1.331982 -0.11896,-0.579122 -0.41638,-0.579122 z m 49.96654,14.999274 q -1.18968,0 -2.31988,-0.05791 -1.13019,-0.115825 -2.2009,-0.405386 0.11896,0.868684 0.65432,1.447806 0.53535,0.521211 1.24916,0.868684 0.71381,0.289561 1.54658,0.405386 0.89226,0.05791 1.60607,0.05791 1.66555,0 2.85523,-0.405386 1.24917,-0.463298 2.31988,-0.926596 1.07071,-0.52121 2.14142,-0.926596 1.07071,-0.463298 2.43884,-0.463298 1.72504,0 3.03368,0.926596 1.36813,0.926596 1.36813,2.779789 0,2.606051 -1.60606,4.285507 -1.60607,1.621543 -3.98543,2.606051 -2.31987,0.926596 -4.93717,1.27407 -2.61729,0.347473 -4.69923,0.347473 -4.8182,0 -8.32775,-1.447806 -3.45007,-1.447807 -5.71046,-4.053858 -2.26039,-2.663964 -3.33111,-6.312436 -1.07071,-3.648472 -1.07071,-8.049804 0,-4.227594 1.01123,-7.70233 1.01123,-3.532647 3.09317,-6.022874 2.14142,-2.490227 5.41304,-3.880122 3.3311,-1.389894 7.97085,-1.389894 3.03368,0 6.06736,0.75286 3.09317,0.752859 5.47253,2.374402 2.43884,1.621543 3.92594,4.053858 1.54658,2.432315 1.54658,5.849138 0,3.300999 -1.24916,5.90705 -1.18968,2.606052 -3.27162,4.401332 -2.08194,1.795279 -4.93717,2.779788 -2.85523,0.926596 -6.06736,0.926596 z M 221.54607,38.89815 q 0,1.216158 1.01122,2.142754 1.07071,0.926596 2.26039,0.926596 0.77329,0 1.42762,-0.347474 0.71381,-0.347473 1.24916,-0.868683 0.53536,-0.579123 0.83278,-1.27407 0.29742,-0.694947 0.29742,-1.447806 0,-0.810772 -0.35691,-1.331982 -0.3569,-0.579123 -0.95174,-0.868684 -0.59484,-0.347474 -1.30865,-0.463298 -0.65432,-0.173737 -1.36813,-0.173737 -1.66555,0 -2.37936,1.158245 -0.7138,1.100333 -0.7138,2.548139 z"
   class="home_link_text"
   aria-label="Home"
/>
<animateTransform
   attributeName="transform"
   attributeType="XML"
   type="translate"
   values="1 1;1 10;1 1"
   dur="3s"
   repeatCount="indefinite"
/>


</svg>
