<?xml version="1.0" encoding="UTF-8" standalone="no"?>
<svg
   width="320"
   height="120"
   viewBox="0 0 320 90"
   version="1.1"
   xml:space="preserve"
   style="overflow:visible"
   id="main"
   xmlns="http://www.w3.org/2000/svg"
   xmlns:svg="http://www.w3.org/2000/svg">


<defs>
   <style type="text/css">
      .home_link_text {
         overflow:visible;
         font-size:36px;
         font-family:'Shanty House';
         -inkscape-font-specification:'Shanty House';
         fill: #323177;
         stroke-width: 1.32593;
         text-rendering: optimizeLegibility;
         -moz-osx-font-smoothing:grayscale;
         -webkit-font-smoothing:antialiased
      }
   </style>
</defs>

<path
   d="m 86.387755,17.061224 q 2,-19.9999995 18.000005,-19.9999995 1,0 2,1 -10.000005,9 2,18.9999995"
   fill="#1a1a1a"
   id="ear1"
/>
<path
   d="m 116.38776,17.061224 q 2,-19.9999995 18,-19.9999995 1,0 2,1 -10,9 2,18.9999995"
   fill="#1a1a1a"
   id="ear2">
   <animate
      attributeName="d"
      dur="2s"
      repeatCount="indefinite"
      values="m 116.38776,17.061224 q 2,-19.9999995 18,-19.9999995 1,0 2,1 -10,9 2,18.9999995;m 116.38776,17.061224 q -4.838,-8.984 -3.46938,-18.693877 1.501,1.247 2.73469,3.3673469 10.125,8.107 22.73469,15.3265301; m 116.38776,17.061224 q 2,-19.9999995 18,-19.9999995 1,0 2,1 -10,9 2,18.9999995"
      keyTimes="0; 0.1; 1"
   />
</path>
<path
   d="m 243.91837,48.367347 a 12.5,12.5 0 0 1 0,25 h -50"
   fill="none"
   stroke="#1a1a1a"
   stroke-width="12"
   stroke-linecap="round"
   id="tail"
/>
<path
   d="m 105.4081,53.035335 q -1.47869,0 -2.86497,-1.334149 -1.38627,-1.38974 -2.633914,-3.224196 -1.201437,-1.890045 -2.264246,-3.89127 -1.0166,-2.001225 -1.755946,-3.279784 -0.231046,0.277948 -0.277255,0.667074 0,0.333538 0,0.667076 0,1.612098 0.04621,3.446552 0.04621,1.834456 -0.323464,3.390965 -0.323463,1.500918 -1.247645,2.557121 -0.924182,1.000611 -2.864965,1.000611 -1.894573,0 -3.003591,-1.222969 -1.109023,-1.278561 -1.70974,-3.113017 -0.55451,-1.890046 -0.739346,-3.94686 -0.184837,-2.112403 -0.277255,-3.78009 -0.09242,-1.723278 -0.184836,-3.390965 Q 85.214715,35.858158 85.1223,34.19047 84.937464,31.688939 84.752627,29.298587 84.614,26.852647 84.614,24.351116 q 0,-1.890046 0.231046,-3.724502 0.231045,-1.890045 0.877972,-3.390963 0.693137,-1.500919 1.848364,-2.445941 1.201437,-0.945023 3.096011,-0.945023 1.617318,0 2.633918,0.555896 1.0166,0.500305 1.571109,1.500918 0.55451,1.000612 0.739346,2.390352 0.231045,1.389738 0.231045,3.057426 0,0.333537 0,1.27856 0,0.889433 -0.04621,1.890045 -0.04621,1.000613 -0.09242,1.834456 -0.04621,0.833844 -0.138628,1.056202 0.877972,-1.500918 2.125618,-3.78009 1.247647,-2.334763 2.726339,-4.502756 1.5249,-2.223583 3.14222,-3.780091 1.66352,-1.612098 3.32705,-1.612098 1.15523,0 2.07941,0.611485 0.92418,0.555896 1.5249,1.556509 0.64693,0.945023 0.97039,2.167994 0.32347,1.22297 0.32347,2.50153 0,1.612098 -0.69314,3.224196 -0.64693,1.612096 -1.66353,3.113015 -0.97039,1.445329 -2.17182,2.77948 -1.15523,1.334149 -2.17183,2.39035 -0.97039,1.056202 -1.66353,1.778867 -0.64693,0.722664 -0.64693,1.056202 0,0.389127 0.60072,1.056202 0.60072,0.667074 1.47869,1.556508 0.92418,0.833844 1.98699,1.890045 1.06281,1.056202 1.94079,2.279173 0.92418,1.167381 1.5249,2.50153 0.60071,1.278561 0.60071,2.6683 0,2.946248 -1.57111,4.558344 -1.5711,1.612098 -3.92777,1.612098 z m 20.74782,-10.895556 q -0.92418,0 -1.80216,-0.05559 -0.87797,-0.111184 -1.70973,-0.389127 0.0924,0.833843 0.5083,1.389739 0.41588,0.500306 0.97039,0.833844 0.55451,0.277947 1.20144,0.389127 0.69313,0.05559 1.24764,0.05559 1.29386,0 2.21804,-0.389127 0.97039,-0.444716 1.80215,-0.889433 0.83177,-0.500307 1.66353,-0.889434 0.83176,-0.444716 1.89457,-0.444716 1.34007,0 2.35667,0.889434 1.06281,0.889433 1.06281,2.668299 0,2.501531 -1.24765,4.113629 -1.24764,1.556507 -3.09601,2.50153 -1.80215,0.889433 -3.83536,1.222971 -2.03319,0.333538 -3.65051,0.333538 -3.74294,0 -6.46928,-1.38974 -2.68012,-1.389739 -4.43607,-3.89127 -1.75595,-2.557121 -2.58771,-6.059264 -0.83176,-3.502143 -0.83176,-7.726951 0,-4.058038 0.78555,-7.393413 0.78556,-3.390963 2.40287,-5.781315 1.66353,-2.390351 4.20503,-3.724502 2.58771,-1.33415 6.19202,-1.33415 2.35667,0 4.71333,0.722665 2.40287,0.722664 4.25124,2.279173 1.89457,1.556508 3.0498,3.89127 1.20143,2.334761 1.20143,5.614546 0,3.168606 -0.97039,5.670137 -0.92418,2.50153 -2.5415,4.224808 -1.61732,1.723276 -3.83535,2.668299 -2.21804,0.889433 -4.71333,0.889433 z m -3.97398,-11.395863 q 0,1.167382 0.78555,2.056814 0.83177,0.889434 1.75595,0.889434 0.60072,0 1.10902,-0.333538 0.5545,-0.333536 0.97039,-0.833843 0.41588,-0.555895 0.64692,-1.222971 0.23105,-0.667074 0.23105,-1.389738 0,-0.778254 -0.27726,-1.278561 -0.27725,-0.555895 -0.73934,-0.833844 -0.46209,-0.333538 -1.0166,-0.444716 -0.5083,-0.166769 -1.06281,-0.166769 -1.29386,0 -1.84836,1.111792 -0.55451,1.056202 -0.55451,2.44594 z m 32.16153,-2.779478 q -1.15523,0 -1.80216,0.945023 -0.60071,0.889433 -0.92418,2.612709 -0.32346,1.667689 -0.41588,4.11363 -0.0462,2.390351 -0.0462,5.392188 0,1.612098 0.0924,3.224196 0.13863,1.556507 0.13863,3.168605 0,1.167381 -0.18484,2.223583 -0.13863,1.056202 -0.55451,1.834456 -0.41588,0.722665 -1.15523,1.167381 -0.69313,0.444716 -1.84836,0.444716 -2.63392,0 -4.02019,-1.556508 -1.38627,-1.556507 -1.98699,-3.835681 -0.60072,-2.334761 -0.69314,-5.003061 -0.0924,-2.668299 -0.23104,-4.891882 -0.0924,-2.112404 -0.23105,-4.169218 -0.0924,-2.112405 -0.0924,-4.224808 0,-3.001837 1.15523,-5.392188 1.15523,-2.390352 3.09601,-4.058039 1.94078,-1.667687 4.48228,-2.501531 2.5415,-0.889434 5.26784,-0.889434 4.25123,0 6.74653,1.167382 2.5415,1.167381 3.83535,3.224195 1.34007,2.056814 1.75595,4.891883 0.41588,2.779478 0.41588,6.114853 0,2.44594 -0.23105,4.836292 -0.18483,2.334763 -0.36967,4.780704 -0.13863,1.667687 -0.32346,3.668911 -0.18484,1.945636 -0.73935,3.724502 -0.55451,1.723277 -1.61732,2.890658 -1.0166,1.16738 -2.86496,1.16738 -1.61732,0 -2.5415,-1.111791 -0.92418,-1.111791 -1.43248,-2.668299 -0.4621,-1.612098 -0.60072,-3.446554 -0.13863,-1.834456 -0.13863,-3.224196 0,-2.668299 0.18484,-5.16983 0.18483,-2.557119 0.18483,-5.16983 0,-0.722665 -0.0924,-1.445328 -0.0924,-0.778255 -0.32346,-1.38974 -0.23104,-0.667075 -0.69314,-1.056202 -0.46209,-0.389127 -1.20143,-0.389127 z m 28.32621,0 q -1.15522,0 -1.80214,0.945023 -0.60073,0.889433 -0.92419,2.612709 -0.32346,1.667689 -0.41588,4.11363 -0.0462,2.390351 -0.0462,5.392188 0,1.612098 0.0924,3.224196 0.13863,1.556507 0.13863,3.168605 0,1.167381 -0.18483,2.223583 -0.13863,1.056202 -0.55451,1.834456 -0.41589,0.722665 -1.15523,1.167381 -0.69314,0.444716 -1.84836,0.444716 -2.63392,0 -4.0202,-1.556508 -1.38627,-1.556507 -1.98699,-3.835681 -0.60072,-2.334761 -0.69313,-5.003061 -0.0924,-2.668299 -0.23105,-4.891882 -0.0924,-2.112404 -0.23105,-4.169218 -0.0924,-2.112405 -0.0924,-4.224808 0,-3.001837 1.15523,-5.392188 1.15523,-2.390352 3.09601,-4.058039 1.94078,-1.667687 4.48228,-2.501531 2.5415,-0.889434 5.26785,-0.889434 4.25123,0 6.74652,1.167382 2.5415,1.167381 3.83535,3.224195 1.34007,2.056814 1.75595,4.891883 0.41589,2.779478 0.41589,6.114853 0,2.44594 -0.23105,4.836292 -0.18484,2.334763 -0.36967,4.780704 -0.13863,1.667687 -0.32347,3.668911 -0.18483,1.945636 -0.73934,3.724502 -0.55451,1.723277 -1.61731,2.890658 -1.01661,1.16738 -2.86497,1.16738 -1.61733,0 -2.5415,-1.111791 -0.92419,-1.111791 -1.43248,-2.668299 -0.4621,-1.612098 -0.60073,-3.446554 -0.13863,-1.834456 -0.13863,-3.224196 0,-2.668299 0.18485,-5.16983 0.18483,-2.557119 0.18483,-5.16983 0,-0.722665 -0.0925,-1.445328 -0.0924,-0.778255 -0.32346,-1.38974 -0.23104,-0.667075 -0.69313,-1.056202 -0.46209,-0.389127 -1.20144,-0.389127 z m 29.34283,14.175341 q -0.92419,0 -1.80216,-0.05559 -0.87797,-0.111184 -1.70973,-0.389127 0.0925,0.833843 0.50829,1.389739 0.41588,0.500306 0.97039,0.833844 0.55451,0.277947 1.20144,0.389127 0.69314,0.05559 1.24765,0.05559 1.29385,0 2.21803,-0.389127 0.97039,-0.444716 1.80215,-0.889433 0.83177,-0.500307 1.66353,-0.889434 0.83177,-0.444716 1.89458,-0.444716 1.34006,0 2.35667,0.889434 1.0628,0.889433 1.0628,2.668299 0,2.501531 -1.24765,4.113629 -1.24764,1.556507 -3.096,2.50153 -1.80216,0.889433 -3.83536,1.222971 -2.0332,0.333538 -3.65051,0.333538 -3.74294,0 -6.46929,-1.38974 -2.68012,-1.389739 -4.43606,-3.89127 -1.75595,-2.557121 -2.58772,-6.059264 -0.83176,-3.502143 -0.83176,-7.726951 0,-4.058038 0.78556,-7.393413 0.78556,-3.390963 2.40287,-5.781315 1.66353,-2.390351 4.20503,-3.724502 2.58771,-1.33415 6.19201,-1.33415 2.35667,0 4.71333,0.722665 2.40288,0.722664 4.25124,2.279173 1.89458,1.556508 3.0498,3.89127 1.20144,2.334761 1.20144,5.614546 0,3.168606 -0.97039,5.670137 -0.92419,2.50153 -2.5415,4.224808 -1.61732,1.723276 -3.83536,2.668299 -2.21804,0.889433 -4.71332,0.889433 z m -3.97399,-11.395863 q 0,1.167382 0.78556,2.056814 0.83176,0.889434 1.75594,0.889434 0.60072,0 1.10902,-0.333538 0.55451,-0.333536 0.97039,-0.833843 0.41588,-0.555895 0.64693,-1.222971 0.23105,-0.667074 0.23105,-1.389738 0,-0.778254 -0.27725,-1.278561 -0.27726,-0.555895 -0.73936,-0.833844 -0.46209,-0.333538 -1.0166,-0.444716 -0.5083,-0.166769 -1.06281,-0.166769 -1.29385,0 -1.84836,1.111792 -0.55451,1.056202 -0.55451,2.44594 z m 18.34501,-6.837517 q 0,-2.056814 0.27726,-4.113628 0.27725,-2.112404 1.01659,-3.780092 0.73935,-1.723276 2.03321,-2.779478 1.34006,-1.056201 3.41947,-1.056201 1.80215,0 2.86497,0.945023 1.10902,0.945022 1.66352,2.44594 0.60072,1.44533 0.73935,3.279786 0.18483,1.778865 0.18483,3.502143 0,2.890657 -0.18483,5.781315 -0.13863,2.835067 -0.36968,5.725726 -0.18483,2.835069 -0.36967,5.670137 -0.13863,2.835067 -0.13863,5.614546 0,0.333538 0.0462,0.500306 0.23104,-0.111183 0.46209,-0.111183 0.27725,0 0.55451,0 1.47869,0 2.5415,0.889433 1.06281,0.889433 1.06281,2.835069 0,1.612097 -0.55451,2.50153 -0.55451,0.889434 -1.43248,1.33415 -0.87798,0.444717 -1.94078,0.555895 -1.06282,0.111184 -2.12562,0.111184 -1.66353,0 -3.18843,-0.277947 -1.5249,-0.277949 -2.72634,-1.111792 -1.15523,-0.833844 -1.89457,-2.279173 -0.69314,-1.445329 -0.83176,-3.78009 l -1.01659,-19.511941 q -0.0462,-0.722664 -0.0925,-1.445329 0,-0.722664 0,-1.445329 z"
   class="home_link_text"
   aria-label="Kennel"
/>
<animateTransform
   attributeName="transform"
   attributeType="XML"
   type="translate"
   values="1 1;1 10;1 1"
   dur="3s"
   repeatCount="indefinite"
/>


</svg>
