<?xml version="1.0" encoding="UTF-8" standalone="no"?>
<!-- Created with Inkscape (http://www.inkscape.org/) -->

<svg
   width="127.9739mm"
   height="95.444839mm"
   viewBox="0 0 127.9739 95.444841"
   version="1.1"
   id="svg1"
   sodipodi:docname="Wing.svg"
   xml:space="preserve"
   xmlns:inkscape="http://www.inkscape.org/namespaces/inkscape"
   xmlns:sodipodi="http://sodipodi.sourceforge.net/DTD/sodipodi-0.dtd"
   xmlns="http://www.w3.org/2000/svg"
   xmlns:svg="http://www.w3.org/2000/svg"><sodipodi:namedview
     id="namedview1"
     pagecolor="#ffffff"
     bordercolor="#000000"
     borderopacity="0.25"
     inkscape:showpageshadow="2"
     inkscape:pageopacity="0.0"
     inkscape:pagecheckerboard="0"
     inkscape:deskcolor="#d1d1d1"
     inkscape:document-units="mm"><inkscape:page
       x="0"
       y="3.2028027e-23"
       width="127.9739"
       height="95.444847"
       id="page1"
       margin="0"
       bleed="0" /></sodipodi:namedview><defs
     id="defs1" /><path
     style="fill:#000000"
     d="m 106.87689,95.264729 c -0.27706,-0.0951 -1.08164,-0.15843 -1.78795,-0.14078 -1.18019,0.0295 -1.35139,-0.0164 -2.11362,-0.56735 -0.8964,-0.64788 -1.33321,-0.71561 -2.49329,-0.3866 -1.023567,0.29029 -1.931837,-0.11667 -3.008717,-1.3481 -0.97518,-1.11514 -1.26362,-1.15886 -2.49242,-0.37776 -1.37762,0.87569 -2.47933,0.72549 -3.46808,-0.47282 -0.66259,-0.80301 -1.22782,-1.04018 -2.47899,-1.04018 -1.05348,0 -1.25131,-0.0672 -2.30567,-0.783472 -1.07071,-0.727354 -1.26839,-0.79263 -2.75997,-0.911375 -2.05433,-0.163544 -2.71246,-0.509134 -3.49383,-1.834624 -0.64683,-1.09726 -0.65629,-1.102435 -3.18731,-1.743774 -0.75922,-0.19238 -1.56021,-0.482478 -1.77997,-0.644664 -0.57815,-0.426668 -0.91233,-1.358815 -1.10109,-3.07129 -0.22888,-2.07646 -0.50409,-2.34075 -2.40968,-2.31408 -1.979674,0.02771 -2.530708,-0.340981 -3.387358,-2.266423 -0.551749,-1.240132 -0.89131,-1.279565 -2.537965,-0.294734 -1.006106,0.601732 -1.357235,0.709397 -2.541986,0.779436 -1.953476,0.115483 -3.968134,-0.595123 -5.889203,-2.077228 -0.390567,-0.301322 -1.249874,-0.79526 -1.90957,-1.097638 -0.659696,-0.302379 -1.378155,-0.738875 -1.596576,-0.969991 -0.29457,-0.311693 -0.560287,-0.405536 -1.028915,-0.363384 -1.34151,0.120667 -1.765264,0.0128 -3.031315,-0.771636 -0.87972,-0.545067 -1.755386,-0.909035 -2.732597,-1.135797 -1.840174,-0.427012 -4.22502,-1.703748 -4.817936,-2.579298 -0.538734,-0.79554 -1.072297,-1.111619 -2.141916,-1.268856 -2.425663,-0.356579 -4.533687,-1.18522 -5.274444,-2.073325 -0.243187,-0.291561 -0.419731,-0.788075 -0.474378,-1.33415 -0.100551,-1.004773 -0.253744,-1.133288 -1.553199,-1.302981 -1.021772,-0.133431 -3.884827,-1.063028 -4.654253,-1.511176 -0.270789,-0.15772 -0.770019,-0.632942 -1.109401,-1.05605 -1.057848,-1.318825 -0.810578,-2.268473 0.961973,-3.694485 1.947735,-1.566948 2.245931,-2.309138 1.060631,-2.639845 -0.501792,-0.140003 -0.914245,-0.08328 -2.013178,0.276863 -2.199132,0.720701 -4.034924,0.643306 -6.587408,-0.27772 -2.546106,-0.918725 -2.842544,-1.091409 -3.10672,-1.809751 -0.380704,-1.035203 -0.01001,-1.875399 1.603154,-3.633673 0.780785,-0.851018 1.419609,-1.648054 1.419609,-1.771191 0,-0.405426 -0.721139,-0.450975 -3.569137,-0.225435 -4.412496,0.349436 -7.2063956,-0.20851 -8.3425866,-1.666028 -1.078882,-1.384003 -0.432922,-2.761721 2.0516876,-4.375878 2.179579,-1.415991 2.762302,-2.139678 1.926128,-2.392072 -0.207793,-0.06272 -1.43566,-0.11621 -2.7285936,-0.118865 -2.698964,-0.0055 -3.603325,-0.216245 -5.451648,-1.270154 -1.681296,-0.958672 -2.188413,-1.459351 -2.188413,-2.160632 0,-2.486024 3.248824,-4.28813 12.4255936,-6.892414 5.052495,-1.433852 6.589699,-1.964921 8.054128,-2.782518 2.176921,-1.215383 1.525836,-1.406718 -3.772336,-1.10858 -4.908848,0.27623 -12.9438306,0.288604 -15.4235546,0.02375 C 0.86815443,23.490522 2.4271418e-6,22.971514 2.4271418e-6,21.613115 2.4271418e-6,20.205728 1.2051924,19.050065 3.5390524,18.2195 6.0362814,17.330796 16.494374,15.527787 26.614278,14.241256 32.267539,13.522564 34.44296,13.064182 35.897285,12.285237 36.833928,11.783566 36.526841,11.484286 34.169302,10.601186 31.241615,9.5045177 30.269103,9.2896407 26.70013,8.9508717 25.026708,8.7920297 23.151614,8.5785537 22.533254,8.4764827 21.914894,8.3744107 20.275547,8.1574277 18.890261,7.9942977 14.204659,7.4425277 7.3561054,5.6780477 5.4586774,4.5337497 3.2075084,3.1761167 4.2838764,1.4769587 7.9262224,0.63847531 11.183151,-0.11128359 22.144197,-0.22612059 27.873629,0.42948981 35.504777,1.3027107 48.370801,4.3545397 55.38804,6.9559257 c 6.529811,2.420691 8.964812,3.1415233 11.525457,3.4118803 1.963633,0.207324 3.528767,0.538119 6.159456,1.301816 0.70949,0.205965 2.22071,0.467827 3.35827,0.581916 1.13757,0.114089 2.51269,0.295025 3.05583,0.40208 0.54314,0.107055 1.75212,0.269005 2.68661,0.359888 1.2025,0.116946 2.01475,0.312926 2.77913,0.670546 1.07022,0.50071 1.0889,0.50253 2.0544,0.200186 0.5359,-0.167815 1.20463,-0.305117 1.48606,-0.305117 0.83375,0 3.03832,1.066335 3.93809,1.904828 1.23795,1.153633 2.02664,1.537652 3.50286,1.705559 1.83659,0.208896 4.130747,1.467164 5.652157,3.100019 0.60098,0.645 1.661,1.640542 2.3556,2.212317 1.23962,1.020418 1.89258,1.803664 3.33052,3.995052 0.46423,0.707478 1.1186,1.385358 1.84141,1.907579 0.6167,0.445554 1.41672,1.22828 1.77782,1.739391 0.36111,0.51111 1.1545,1.485114 1.76309,2.164452 0.6086,0.679338 1.78659,2.078438 2.61776,3.10911 0.83117,1.030673 2.04447,2.367151 2.69622,2.969952 1.28286,1.186518 1.77965,2.001732 2.10386,3.452347 0.16145,0.722389 0.40774,1.14787 1.09476,1.891248 0.64089,0.693459 0.98876,1.270272 1.25577,2.08223 0.30756,0.935268 0.61738,1.390461 1.85276,2.722122 2.63312,2.838313 3.15904,4.15579 2.61982,6.562823 -0.13905,0.620729 -0.30298,1.511575 -0.36428,1.979659 -0.0613,0.468083 -0.22689,1.395518 -0.36798,2.060966 -0.30651,1.445699 -0.24666,1.90436 0.61035,4.67747 1.12442,3.638401 1.19628,4.316427 1.19998,11.322975 0.004,6.711629 -0.14265,8.331907 -0.87172,9.660574 -0.41826,0.762264 -0.72853,0.984431 -2.09057,1.496939 l -1.00748,0.379096 -0.92352,2.070501 c -0.52263,1.171721 -1.11428,2.226339 -1.36296,2.429489 -0.30872,0.25221 -0.76935,0.37101 -1.54863,0.39941 l -1.10919,0.0404 -1.16013,1.2615 c -1.20762,1.31312 -1.72545,1.64737 -2.55224,1.64737 -0.57226,0 -2.08772,-0.61419 -2.48643,-1.00771 -0.66728,-0.65859 -0.98105,-0.57817 -1.92475,0.49327 -0.66844,0.75892 -1.09888,1.0783 -1.67251,1.24099 -0.89488,0.2538 -1.67414,0.25826 -2.3868,0.0137 z"
     id="path1" /></svg>
